<svg width="785" height="98" viewBox="0 0 785 98" fill="none" xmlns="http://www.w3.org/2000/svg">
<path d="M38.2753 97.9999V25.1482H0V3.27661H108.232V25.1482H69.4745V97.9999H38.2753Z" fill="#FCFCFC"/>
<path d="M119.472 97.9999V16.3031L117.864 3.27661H192.324C199.507 3.27661 205.243 4.08072 209.532 5.68893C213.927 7.18992 217.197 9.28058 219.342 11.9609C221.593 14.534 223.04 17.5896 223.684 21.1277C224.434 24.5585 224.809 28.2038 224.809 32.0635V44.7683C224.809 49.9146 223.952 54.6856 222.236 59.0813C220.628 63.3699 217.573 66.8543 213.07 69.5347C208.674 72.1078 202.295 73.3944 193.932 73.3944H182.835C176.081 73.3944 169.755 73.2335 163.859 72.9119C158.069 72.5903 153.727 72.3222 150.832 72.1078V97.9999H119.472ZM150.832 51.5228H184.122C187.66 51.5228 190.126 50.8259 191.52 49.4321C192.913 48.0383 193.61 45.7868 193.61 42.6776V34.4758C193.61 31.3666 192.967 29.1151 191.68 27.7213C190.394 26.2203 187.928 25.4698 184.283 25.4698H150.832V51.5228Z" fill="#FCFCFC"/>
<path d="M219.682 97.9999L266.802 3.43744H308.616L355.575 97.9999H320.999L313.119 80.7921H262.299L253.454 97.9999H219.682ZM271.145 58.5989H304.113L288.513 24.3441H286.905L271.145 58.5989Z" fill="#FCFCFC"/>
<path d="M377.875 96.6275V1.37256H387.915L392.174 16.3333V96.6275H377.875ZM450.892 96.6275L386.089 18.5294L387.915 1.37256L452.87 79.3333L450.892 96.6275ZM450.892 96.6275L446.633 82.4902V1.37256H460.932V96.6275H450.892Z" fill="#FCFCFC"/>
<path d="M485.873 96.6275V1.37256H500.173V96.6275H485.873ZM495.609 96.6275V84.8235H556.152V96.6275H495.609ZM495.609 53.5294V42.2745H551.132V53.5294H495.609ZM495.609 13.1765V1.37256H555.392V13.1765H495.609Z" fill="#FCFCFC"/>
<path d="M602.525 96.6275L567.994 1.37256H582.293L609.674 79.0588H605.567L632.492 1.37256H642.836L669.761 79.0588H665.806L693.187 1.37256H707.335L672.956 96.6275H662.764L635.687 19.0784H639.642L612.717 96.6275H602.525Z" fill="#FCFCFC"/>
<path d="M749.204 98C740.888 98 733.789 96.6275 727.907 93.8824C722.025 91.1373 716.803 87.1569 712.239 81.9412L721.975 73.1569C725.321 77.366 729.175 80.5686 733.536 82.7647C737.896 84.8693 743.271 85.9216 749.66 85.9216C755.948 85.9216 760.968 84.6863 764.72 82.2157C768.574 79.7451 770.501 76.3595 770.501 72.0588C770.501 68.4902 769.588 65.6078 767.762 63.4118C765.937 61.2157 763.452 59.4314 760.309 58.0588C757.266 56.5948 753.92 55.3137 750.269 54.2157C746.618 53.0261 742.967 51.7909 739.316 50.5098C735.665 49.1373 732.319 47.4902 729.276 45.5686C726.234 43.5556 723.749 40.9477 721.823 37.7451C719.997 34.5425 719.084 30.5163 719.084 25.6667C719.084 20.268 720.504 15.6928 723.344 11.9412C726.285 8.09804 730.24 5.16994 735.209 3.15686C740.28 1.05229 745.959 0 752.246 0C759.142 0 765.329 1.23529 770.805 3.70588C776.281 6.08497 780.743 9.24183 784.191 13.1765L774.456 21.9608C771.312 18.6667 767.915 16.1961 764.264 14.549C760.714 12.902 756.607 12.0784 751.942 12.0784C746.263 12.0784 741.75 13.2222 738.404 15.5098C735.057 17.7059 733.384 20.817 733.384 24.8431C733.384 28.0458 734.296 30.6536 736.122 32.6667C738.049 34.5882 740.533 36.2353 743.576 37.6078C746.618 38.9804 749.965 40.2614 753.615 41.451C757.368 42.549 761.069 43.7843 764.72 45.1569C768.371 46.5294 771.718 48.268 774.76 50.3726C777.802 52.4771 780.236 55.2222 782.062 58.6078C783.988 61.902 784.952 66.0654 784.952 71.098C784.952 79.5163 781.707 86.1046 775.216 90.8627C768.827 95.6209 760.157 98 749.204 98Z" fill="#FCFCFC"/>
</svg>
